<svg width="23" height="23" viewBox="0 0 23 23" fill="none" xmlns="http://www.w3.org/2000/svg">
<g id="&#208;&#161;&#208;&#187;&#208;&#190;&#208;&#185; 1">
<path id="Vector" d="M16.5823 7.83391L10.0368 14.4982C9.89917 14.6383 9.7245 14.7363 9.5332 14.7808C9.70599 14.8211 9.88626 14.8164 10.0567 14.7669C10.2271 14.7174 10.3818 14.6248 10.5061 14.4982L17.0517 7.83391C17.1893 7.69364 17.3641 7.5957 17.5556 7.55166C17.3828 7.51117 17.2025 7.51588 17.032 7.56531C16.8615 7.61475 16.7067 7.70725 16.5823 7.83391V7.83391Z" fill="#98D1E5"/>
<path id="Vector_2" d="M9.76963 14.8791C9.68396 14.879 9.59857 14.8691 9.51518 14.8495L9.21582 14.7782L9.51553 14.7091C9.69368 14.6678 9.85636 14.5765 9.98453 14.4461L16.5297 7.78182C16.6622 7.64587 16.8277 7.5466 17.0101 7.49369C17.1924 7.44079 17.3853 7.43606 17.57 7.47997L17.8694 7.54946L17.57 7.6186C17.3918 7.65973 17.2291 7.75099 17.101 7.88161L10.5554 14.5459C10.4534 14.6511 10.3312 14.7348 10.1963 14.792C10.0613 14.8493 9.91623 14.8789 9.76963 14.8791V14.8791ZM17.2418 7.59793C17.0111 7.6162 16.7948 7.71749 16.6331 7.88303L10.0875 14.5473C10.016 14.6199 9.93479 14.6824 9.84625 14.7329C10.0771 14.7147 10.2934 14.6134 10.4553 14.4478L17.0005 7.7836C17.0721 7.71097 17.1532 7.64849 17.2418 7.59793V7.59793Z" fill="#727272"/>
<path id="Vector_3" d="M22.5017 7.66855L15.0691 0.368173C14.9449 0.246103 14.7919 0.157397 14.6242 0.110296C14.4566 0.0631943 14.2797 0.0592237 14.1101 0.0987523C14.295 0.141711 14.4645 0.234951 14.5998 0.368173L22.0324 7.66855C22.1425 7.77669 22.2051 7.92413 22.2065 8.07844C22.2079 8.23275 22.148 8.3813 22.0398 8.49143L21.1382 9.40945C21.0006 9.54972 20.8258 9.64767 20.6343 9.6917C20.8071 9.73219 20.9874 9.72749 21.1579 9.67805C21.3284 9.62862 21.4832 9.53611 21.6076 9.40945L22.5092 8.49143C22.6173 8.3813 22.6772 8.23275 22.6758 8.07844C22.6744 7.92413 22.6118 7.77669 22.5017 7.66855V7.66855Z" fill="#98D1E5"/>
<path id="Vector_4" d="M20.8727 9.78947C20.787 9.78945 20.7016 9.77952 20.6182 9.75989L20.3189 9.69039L20.6182 9.62126C20.7966 9.58007 20.9595 9.48868 21.0876 9.35789L21.9889 8.44022C22.0836 8.34346 22.1361 8.21311 22.1349 8.07771C22.1337 7.94231 22.0789 7.81291 21.9824 7.71785L14.5498 0.418893C14.4237 0.295408 14.266 0.20909 14.094 0.169429L13.7947 0.098154L14.094 0.0290168C14.2753 -0.0134088 14.4643 -0.00925245 14.6436 0.0410982C14.8228 0.0914488 14.9863 0.186355 15.119 0.316969L22.5516 7.61735C22.6751 7.73887 22.7453 7.90444 22.7468 8.0777C22.7484 8.25095 22.6811 8.41774 22.5598 8.54143L21.6585 9.4591C21.5562 9.56382 21.4339 9.647 21.299 9.70374C21.164 9.76048 21.0191 9.78962 20.8727 9.78947ZM14.4223 0.144839C14.5046 0.191923 14.5805 0.249417 14.6482 0.3159L22.0822 7.61735C22.2057 7.73887 22.276 7.90444 22.2775 8.0777C22.279 8.25095 22.2117 8.41774 22.0904 8.54143L21.1891 9.4591C21.1176 9.53174 21.0364 9.59421 20.9479 9.64478C21.1787 9.62662 21.3951 9.52532 21.5569 9.35968L22.4568 8.44129C22.5516 8.34457 22.6041 8.2142 22.6029 8.07878C22.6017 7.94335 22.5469 7.81394 22.4504 7.71892L15.0192 0.418893C14.8589 0.260743 14.6481 0.164093 14.4237 0.145908L14.4223 0.144839Z" fill="#727272"/>
<path id="Vector_5" d="M22.004 8.52663C22.1121 8.41651 22.1721 8.26795 22.1707 8.11364C22.1693 7.95933 22.1066 7.81189 21.9965 7.70375L14.564 0.403374C14.3684 0.211428 14.1046 0.104991 13.8306 0.107464C13.5567 0.109937 13.2949 0.221116 13.1028 0.41656L12.2012 1.33423C12.1476 1.38876 12.1053 1.45332 12.0767 1.52422C12.048 1.59511 12.0337 1.67095 12.0343 1.7474C12.035 1.82385 12.0508 1.89941 12.0807 1.96977C12.1106 2.04013 12.1541 2.10391 12.2087 2.15746L14.1762 4.09009C14.3717 4.28214 14.4828 4.54394 14.4853 4.81794C14.4878 5.09193 14.3813 5.3557 14.1894 5.55124L7.32701 12.5362C7.27342 12.5908 7.23111 12.6553 7.20248 12.7262C7.17386 12.7971 7.15949 12.8729 7.16018 12.9494C7.16088 13.0258 7.17663 13.1014 7.20654 13.1718C7.23644 13.2421 7.27992 13.3059 7.33449 13.3595L8.53976 14.5433C8.7353 14.7353 8.99906 14.8417 9.27306 14.8393C9.54705 14.8368 9.80885 14.7256 10.0009 14.5302L16.5465 7.86591C16.6416 7.76889 16.755 7.69159 16.88 7.63843C17.0051 7.58527 17.1394 7.55729 17.2753 7.5561C17.4112 7.55491 17.5459 7.58052 17.6719 7.63148C17.7979 7.68244 17.9126 7.75774 18.0094 7.85308L19.6413 9.45749C19.8367 9.64948 20.1005 9.75598 20.3745 9.75357C20.6485 9.75117 20.9103 9.64005 21.1024 9.44465L22.004 8.52663Z" fill="#1CACEB"/>
<path id="Vector_6" d="M9.26129 14.9146C8.97206 14.9146 8.69448 14.8006 8.48866 14.5974L7.28339 13.4135C7.22214 13.3535 7.17333 13.2819 7.13975 13.203C7.10616 13.124 7.08847 13.0392 7.08767 12.9535C7.08688 12.8677 7.103 12.7826 7.13512 12.703C7.16723 12.6235 7.21471 12.551 7.27484 12.4898L14.1372 5.50483C14.316 5.32245 14.4151 5.07663 14.4128 4.82128C14.4105 4.56594 14.3071 4.32193 14.1251 4.14275L12.1576 2.20834C12.0963 2.14827 12.0475 2.07671 12.0139 1.99775C11.9803 1.91879 11.9626 1.83398 11.9619 1.74818C11.9611 1.66237 11.9773 1.57727 12.0094 1.49772C12.0416 1.41818 12.0892 1.34576 12.1494 1.28461L13.0506 0.366941C13.1523 0.263255 13.2734 0.18063 13.407 0.123791C13.5407 0.0669523 13.6842 0.0370144 13.8294 0.0356905C13.9746 0.0343665 14.1186 0.0616825 14.2533 0.116075C14.3879 0.170468 14.5105 0.250871 14.6141 0.352685L22.0467 7.65307C22.1702 7.77459 22.2404 7.94015 22.2419 8.11341C22.2435 8.28667 22.1762 8.45346 22.0549 8.57715L21.1536 9.49482C21.0519 9.59848 20.9308 9.68108 20.7971 9.73789C20.6635 9.7947 20.52 9.8246 20.3748 9.82589C20.2295 9.82718 20.0855 9.79984 19.9509 9.74541C19.8163 9.69099 19.6937 9.61056 19.5902 9.50872L17.9594 7.90716C17.8692 7.81846 17.7625 7.74841 17.6452 7.70101C17.5279 7.65361 17.4025 7.62979 17.276 7.63091C17.1495 7.63204 17.0245 7.65808 16.9081 7.70757C16.7917 7.75705 16.6862 7.82899 16.5977 7.91928L10.0521 14.5835C9.94873 14.6883 9.82561 14.7715 9.68987 14.8283C9.55412 14.8851 9.40845 14.9145 9.26129 14.9146V14.9146ZM13.8368 0.178061C13.7092 0.178062 13.5829 0.203603 13.4653 0.25318C13.3477 0.302756 13.2413 0.375364 13.1522 0.466726L12.2509 1.3844C12.2039 1.43224 12.1668 1.48888 12.1416 1.55108C12.1165 1.61329 12.1039 1.67983 12.1045 1.74691C12.1051 1.814 12.1189 1.88031 12.1451 1.94205C12.1713 2.0038 12.2095 2.05977 12.2573 2.10677L14.2245 4.0394C14.4334 4.24502 14.5522 4.52508 14.5549 4.81817C14.5576 5.11126 14.4439 5.39344 14.2388 5.60283L7.37677 12.5896C7.28197 12.6863 7.2294 12.8167 7.2306 12.9521C7.23181 13.0875 7.28668 13.217 7.38318 13.312L8.58845 14.4959C8.67861 14.5846 8.7854 14.6547 8.90269 14.7021C9.01998 14.7496 9.14548 14.7734 9.272 14.7723C9.39851 14.7712 9.52356 14.7451 9.63999 14.6956C9.75642 14.6461 9.86194 14.5741 9.95052 14.4837L16.4957 7.81949C16.5974 7.71578 16.7186 7.63314 16.8523 7.5763C16.9859 7.51946 17.1295 7.48954 17.2747 7.48824C17.42 7.48695 17.5641 7.51432 17.6987 7.56877C17.8334 7.62323 17.956 7.7037 18.0595 7.80559L19.6899 9.40715C19.7801 9.49588 19.8869 9.56596 20.0042 9.61336C20.1215 9.66076 20.247 9.68457 20.3736 9.68341C20.5001 9.68225 20.6251 9.65615 20.7415 9.60661C20.858 9.55706 20.9635 9.48505 21.052 9.39468L21.9533 8.47701C22.048 8.38025 22.1005 8.24989 22.0993 8.1145C22.0981 7.9791 22.0433 7.8497 21.9469 7.75463L14.5143 0.454609C14.3882 0.331124 14.2305 0.244805 14.0585 0.205145C13.9859 0.187719 13.9115 0.178632 13.8368 0.178061V0.178061Z" fill="#727272"/>
<path id="Vector_7" d="M6.1476 20.5942L5.61304 21.6634L6.1476 22.7325C6.43115 22.7325 6.70309 22.6199 6.90359 22.4194C7.10409 22.2189 7.21673 21.9469 7.21673 21.6634C7.21673 21.3798 7.10409 21.1079 6.90359 20.9074C6.70309 20.7069 6.43115 20.5942 6.1476 20.5942Z" fill="#234B72"/>
<path id="Vector_8" d="M5.07837 21.6634C5.07837 21.9469 5.19101 22.2189 5.39151 22.4194C5.59201 22.6199 5.86395 22.7325 6.1475 22.7325V20.5942C5.86395 20.5942 5.59201 20.7069 5.39151 20.9074C5.19101 21.1079 5.07837 21.3798 5.07837 21.6634Z" fill="#375798"/>
<path id="Vector_9" d="M15.3063 20.5942L14.7717 21.6634L15.3063 22.7325C15.5898 22.7325 15.8618 22.6199 16.0623 22.4194C16.2628 22.2189 16.3754 21.9469 16.3754 21.6634C16.3754 21.3798 16.2628 21.1079 16.0623 20.9074C15.8618 20.7069 15.5898 20.5942 15.3063 20.5942Z" fill="#234B72"/>
<path id="Vector_10" d="M14.2373 21.6634C14.2373 21.9469 14.3499 22.2189 14.5504 22.4194C14.7509 22.6199 15.0229 22.7325 15.3064 22.7325V20.5942C15.0229 20.5942 14.7509 20.7069 14.5504 20.9074C14.3499 21.1079 14.2373 21.3798 14.2373 21.6634Z" fill="#375798"/>
<path id="Vector_11" d="M16.3755 18.4561H15.3064V19.5252H16.3755C16.5173 19.5252 16.6533 19.4689 16.7535 19.3686C16.8538 19.2684 16.9101 19.1324 16.9101 18.9906C16.9101 18.8488 16.8538 18.7129 16.7535 18.6126C16.6533 18.5124 16.5173 18.4561 16.3755 18.4561Z" fill="#98D1E5"/>
<path id="Vector_12" d="M9.65771 16.3182H10.7268C11.0104 16.3182 11.2823 16.2055 11.4828 16.005C11.6833 15.8045 11.796 15.5326 11.796 15.249H10.7268L9.65771 16.3182Z" fill="#98D1E5"/>
<path id="Vector_13" d="M15.3063 18.4559H4.5437C4.42553 18.4559 4.3107 18.4167 4.21715 18.3445C4.12359 18.2724 4.0566 18.1712 4.02663 18.0569C3.99666 17.9426 4.0054 17.8216 4.0515 17.7128C4.0976 17.604 4.17844 17.5135 4.28141 17.4555L6.28816 16.3176H9.65735C9.9409 16.3176 10.2128 16.205 10.4133 16.0045C10.6138 15.804 10.7265 15.5321 10.7265 15.2485H6.56222L4.45959 7.03045C4.34137 6.5657 4.09979 6.14152 3.76038 5.80273H3.00558V6.55896C3.20924 6.76196 3.3545 7.01603 3.4261 7.29453L5.52872 15.5197L3.75468 16.5247C3.44636 16.6991 3.20444 16.9706 3.06668 17.2969C2.92892 17.6233 2.90308 17.986 2.99319 18.3286C3.08329 18.6711 3.28428 18.9742 3.56477 19.1905C3.84527 19.4069 4.18948 19.5242 4.5437 19.5243H15.3063C15.4481 19.5243 15.584 19.468 15.6843 19.3677C15.7845 19.2675 15.8408 19.1315 15.8408 18.9897C15.8408 18.848 15.7845 18.712 15.6843 18.6118C15.584 18.5115 15.4481 18.4552 15.3063 18.4552V18.4559Z" fill="#1CACEB"/>
<path id="Vector_14" d="M1.87103 5.021H0.801899C0.660124 5.021 0.524155 5.07732 0.423905 5.17757C0.323654 5.27782 0.267334 5.41379 0.267334 5.55556C0.267334 5.69734 0.323654 5.83331 0.423905 5.93356C0.524155 6.03381 0.660124 6.09013 0.801899 6.09013H1.87103C2.08173 6.08999 2.29039 6.13136 2.48508 6.2119C2.67978 6.29243 2.8567 6.41054 3.00573 6.55948L3.76161 5.80324C3.51336 5.55499 3.21861 5.35812 2.8942 5.2239C2.56979 5.08967 2.22211 5.02072 1.87103 5.021V5.021Z" fill="#FF4C3B"/>
<path id="Vector_15" d="M6.14745 20.3271C5.88313 20.3271 5.62475 20.4055 5.40498 20.5524C5.18521 20.6992 5.01391 20.9079 4.91276 21.1521C4.81161 21.3963 4.78515 21.665 4.83671 21.9243C4.88828 22.1835 5.01556 22.4216 5.20246 22.6085C5.38936 22.7954 5.62749 22.9227 5.88673 22.9743C6.14597 23.0259 6.41467 22.9994 6.65887 22.8982C6.90307 22.7971 7.11179 22.6258 7.25864 22.406C7.40548 22.1863 7.48386 21.9279 7.48386 21.6636C7.48348 21.3092 7.34256 20.9695 7.09202 20.719C6.84147 20.4684 6.50177 20.3275 6.14745 20.3271V20.3271ZM6.14745 22.4654C5.98886 22.4654 5.83383 22.4184 5.70197 22.3303C5.5701 22.2422 5.46733 22.1169 5.40664 21.9704C5.34595 21.8239 5.33007 21.6627 5.36101 21.5071C5.39195 21.3516 5.46832 21.2087 5.58046 21.0966C5.6926 20.9844 5.83547 20.9081 5.99102 20.8771C6.14656 20.8462 6.30778 20.8621 6.4543 20.9228C6.60082 20.9834 6.72605 21.0862 6.81416 21.2181C6.90227 21.3499 6.9493 21.505 6.9493 21.6636C6.94901 21.8761 6.86444 22.0799 6.71413 22.2302C6.56381 22.3806 6.36002 22.4651 6.14745 22.4654V22.4654Z" fill="#727272"/>
<path id="Vector_16" d="M6.14741 21.931C6.29503 21.931 6.41469 21.8114 6.41469 21.6638C6.41469 21.5162 6.29503 21.3965 6.14741 21.3965C5.99979 21.3965 5.88013 21.5162 5.88013 21.6638C5.88013 21.8114 5.99979 21.931 6.14741 21.931Z" fill="#727272"/>
<path id="Vector_17" d="M15.3063 21.931C15.454 21.931 15.5736 21.8114 15.5736 21.6638C15.5736 21.5162 15.454 21.3965 15.3063 21.3965C15.1587 21.3965 15.0391 21.5162 15.0391 21.6638C15.0391 21.8114 15.1587 21.931 15.3063 21.931Z" fill="#727272"/>
<path id="Vector_18" d="M15.3064 20.3271C15.0421 20.3271 14.7837 20.4055 14.5639 20.5524C14.3441 20.6992 14.1728 20.9079 14.0717 21.1521C13.9705 21.3963 13.9441 21.665 13.9957 21.9243C14.0472 22.1835 14.1745 22.4216 14.3614 22.6085C14.5483 22.7954 14.7864 22.9227 15.0457 22.9743C15.3049 23.0259 15.5736 22.9994 15.8178 22.8982C16.062 22.7971 16.2707 22.6258 16.4176 22.406C16.5644 22.1863 16.6428 21.9279 16.6428 21.6636C16.6424 21.3092 16.5015 20.9695 16.251 20.719C16.0004 20.4684 15.6607 20.3275 15.3064 20.3271V20.3271ZM15.3064 22.4654C15.1478 22.4654 14.9928 22.4184 14.8609 22.3303C14.729 22.2422 14.6263 22.1169 14.5656 21.9704C14.5049 21.8239 14.489 21.6627 14.5199 21.5071C14.5509 21.3516 14.6273 21.2087 14.7394 21.0966C14.8515 20.9844 14.9944 20.9081 15.15 20.8771C15.3055 20.8462 15.4667 20.8621 15.6132 20.9228C15.7598 20.9834 15.885 21.0862 15.9731 21.2181C16.0612 21.3499 16.1082 21.505 16.1082 21.6636C16.1079 21.8761 16.0234 22.0799 15.8731 22.2302C15.7227 22.3806 15.519 22.4651 15.3064 22.4654V22.4654Z" fill="#727272"/>
<path id="Vector_19" d="M4.41373 17.6881L6.35919 16.5851H10.7269C11.0349 16.5847 11.3333 16.4782 11.5719 16.2834C11.8104 16.0887 11.9746 15.8176 12.0366 15.516H14.8203C15.2358 15.5162 15.6396 15.378 15.9679 15.1231C16.2961 14.8683 16.5301 14.5113 16.6328 14.1087L18.2365 7.83109C18.2466 7.7916 18.2476 7.75033 18.2393 7.71043C18.231 7.67052 18.2137 7.63304 18.1887 7.60085C18.1637 7.56866 18.1316 7.54261 18.095 7.52471C18.0584 7.5068 18.0182 7.4975 17.9774 7.49752H4.85599L4.71985 6.96296C4.55804 6.33045 4.19014 5.76987 3.67424 5.36975C3.15834 4.96963 2.52385 4.75277 1.87098 4.75342H0.801848C0.589185 4.75342 0.385232 4.8379 0.234856 4.98827C0.0844804 5.13865 0 5.3426 0 5.55527C0 5.76793 0.0844804 5.97188 0.234856 6.12226C0.385232 6.27264 0.589185 6.35712 0.801848 6.35712H1.87098C2.16781 6.35676 2.4563 6.45534 2.69084 6.63728C2.92538 6.81922 3.0926 7.07414 3.16605 7.36174L5.21878 15.3881L3.62293 16.2929C3.26316 16.4963 2.98087 16.8132 2.82014 17.1939C2.65941 17.5747 2.62928 17.998 2.73446 18.3977C2.83963 18.7974 3.07419 19.151 3.40151 19.4033C3.72884 19.6557 4.1305 19.7925 4.5438 19.7925H16.3755C16.5882 19.7925 16.7921 19.708 16.9425 19.5577C17.0929 19.4073 17.1774 19.2033 17.1774 18.9907C17.1774 18.778 17.0929 18.5741 16.9425 18.4237C16.7921 18.2733 16.5882 18.1888 16.3755 18.1888H4.5438C4.48464 18.1888 4.42715 18.1691 4.38036 18.1329C4.33357 18.0967 4.30011 18.046 4.28523 17.9888C4.27035 17.9315 4.2749 17.8709 4.29815 17.8165C4.32141 17.7621 4.36206 17.7169 4.41373 17.6881V17.6881ZM14.321 12.4868H12.6785L12.7786 10.5267H14.6214L14.321 12.4868ZM15.1624 10.5267H16.997L16.496 12.4868H14.8616L15.1624 10.5267ZM14.2387 13.0214L13.9383 14.9814H12.5495L12.6496 13.0214H14.2387ZM12.1432 12.4868H10.4978L10.3977 10.5267H12.2433L12.1432 12.4868ZM12.806 9.99216L12.9062 8.03209H15.0042L14.7034 9.99216H12.806ZM12.2715 9.99216H10.3702L10.2697 8.03209H12.3723L12.2715 9.99216ZM9.83565 9.99216H8.77685C8.70596 9.99216 8.63798 10.0203 8.58785 10.0704C8.53773 10.1206 8.50957 10.1886 8.50957 10.2594C8.50957 10.3303 8.53773 10.3983 8.58785 10.4484C8.63798 10.4986 8.70596 10.5267 8.77685 10.5267H9.86237L9.96252 12.4868H8.31997L7.63644 8.03209H9.73408L9.83565 9.99216ZM7.78006 12.4868H6.13218L5.63075 10.5267H7.47857L7.78006 12.4868ZM7.86203 13.0214L8.16281 14.9814H6.77009L6.26903 13.0214H7.86203ZM8.70344 14.9814L8.40265 13.0214H9.99067L10.0908 14.9814H8.70344ZM10.6261 14.9814L10.5259 13.0214H12.1165L12.0163 14.9814H10.6261ZM16.1143 13.9761C16.0409 14.2637 15.8737 14.5187 15.6393 14.7007C15.4048 14.8828 15.1164 14.9816 14.8196 14.9814H14.4782L14.7789 13.0214H16.3591L16.1143 13.9761ZM17.1332 9.99216H15.2444L15.5452 8.03209H17.635L17.1332 9.99216ZM7.09689 8.03209L7.39767 9.99216H5.49319L4.99177 8.03209H7.09689ZM1.8724 5.82255H0.803273C0.732385 5.82255 0.664401 5.79439 0.614276 5.74426C0.564151 5.69414 0.535991 5.62616 0.535991 5.55527C0.535991 5.48438 0.564151 5.41639 0.614276 5.36627C0.664401 5.31614 0.732385 5.28798 0.803273 5.28798H1.8724C2.41817 5.28756 2.94781 5.47295 3.37418 5.81364L2.99321 6.19496C2.66929 5.95266 2.2755 5.82198 1.87098 5.82255H1.8724ZM4.54523 18.7234H16.3769C16.4478 18.7234 16.5158 18.7516 16.5659 18.8017C16.6161 18.8518 16.6442 18.9198 16.6442 18.9907C16.6442 19.0616 16.6161 19.1295 16.5659 19.1797C16.5158 19.2298 16.4478 19.258 16.3769 19.258H4.54523C4.24999 19.2579 3.96306 19.1601 3.72927 18.9798C3.49548 18.7995 3.32797 18.5468 3.25291 18.2613C3.17785 17.9758 3.19947 17.6734 3.31437 17.4014C3.42928 17.1295 3.63101 16.9032 3.88807 16.758L5.66176 15.7523C5.7128 15.7234 5.75291 15.6785 5.7759 15.6245C5.79889 15.5705 5.80349 15.5105 5.78899 15.4536L3.68636 7.22917C3.62593 6.99182 3.51923 6.76874 3.37239 6.57272L3.75372 6.1914C3.96649 6.45788 4.12016 6.76655 4.20453 7.09695L6.30716 15.315C6.32176 15.3725 6.35513 15.4235 6.402 15.4599C6.44887 15.4964 6.50654 15.5161 6.56589 15.516H11.4832C11.4277 15.6722 11.3252 15.8075 11.1898 15.9032C11.0544 15.9989 10.8927 16.0504 10.7269 16.0506H6.28863C6.24234 16.0509 6.19691 16.0632 6.15677 16.0862L4.15001 17.2238C3.99563 17.3108 3.87443 17.4465 3.80536 17.6097C3.73628 17.7729 3.72322 17.9544 3.76821 18.1258C3.8132 18.2972 3.91371 18.4489 4.05403 18.5572C4.19436 18.6654 4.36658 18.7241 4.5438 18.7241L4.54523 18.7234Z" fill="#727272"/>
</g>
</svg>
