<svg width="19" height="25" viewBox="0 0 19 25" fill="none" xmlns="http://www.w3.org/2000/svg">
<g id="Group 6">
<path id="Vector" d="M0 12.2323C0 8.96222 0 5.69164 0 2.42057C0 0.674967 0.682241 0 2.41475 0C7.13952 0 11.8638 0 16.5876 0C18.2357 0 18.9514 0.696787 18.9529 2.32747C18.9529 8.96465 18.9529 15.6023 18.9529 22.2404C18.9529 23.8406 18.2256 24.5519 16.6487 24.5519C11.8754 24.5519 7.10267 24.5519 2.33038 24.5519C0.706968 24.5519 0.00290774 23.842 0.00290774 22.1924C0.000968182 18.8709 0 15.5509 0 12.2323ZM0.753518 12.2745C0.753518 15.5718 0.753518 18.869 0.753518 22.1663C0.753518 23.4406 1.12883 23.8188 2.38857 23.8188H16.5629C17.8226 23.8188 18.1979 23.4406 18.1994 22.1663C18.1994 15.5718 18.1994 8.98162 18.1994 2.39584C18.1994 1.1201 17.8241 0.743335 16.5629 0.74188C11.8381 0.74188 7.11334 0.74188 2.38857 0.74188C1.12883 0.74188 0.753518 1.12155 0.753518 2.39584C0.751578 5.68727 0.751578 8.98016 0.753518 12.2745Z" fill="white"/>
<path id="Vector_2" d="M9.44667 1.43709C11.4352 1.43709 13.4223 1.43709 15.4108 1.43709C16.72 1.43709 17.3252 2.0335 17.3383 3.34271C17.3499 4.45844 17.3513 5.57271 17.3383 6.68845C17.3222 7.91764 16.7156 8.53733 15.5083 8.53879C11.4847 8.54752 7.46007 8.54752 3.43451 8.53879C2.25768 8.53879 1.638 7.92346 1.61763 6.74954C1.59727 5.57562 1.59581 4.37261 1.61763 3.1856C1.64091 2.07132 2.28823 1.44 3.40833 1.44C5.42305 1.42981 7.43486 1.43709 9.44667 1.43709ZM9.40448 7.80854C11.4163 7.80854 13.4281 7.80854 15.4399 7.80854C16.2763 7.80854 16.592 7.49724 16.6036 6.67099C16.6211 5.55574 16.6211 4.4405 16.6036 3.32525C16.5906 2.49463 16.2778 2.19061 15.4399 2.19061C11.4638 2.18479 7.48771 2.18479 3.51161 2.19061C2.67372 2.19061 2.35952 2.49463 2.34788 3.32525C2.33042 4.39152 2.3377 5.4578 2.34788 6.52552C2.35515 7.53216 2.63881 7.81145 3.65708 7.81291C5.57434 7.81582 7.48868 7.81582 9.40448 7.81582V7.80854Z" fill="white"/>
<path id="Vector_3" d="M14.8507 23.1117C14.5598 23.1117 14.2689 23.1234 13.9779 23.1117C13.1793 23.0695 12.7458 22.6259 12.7284 21.8258C12.7167 21.2716 12.7138 20.7144 12.7284 20.1602C12.7487 19.4663 13.1415 19.0037 13.8237 18.9586C14.5226 18.908 15.2243 18.9104 15.9228 18.9659C16.5774 19.0226 16.9687 19.4329 16.9905 20.118C17.008 20.6242 17.0022 21.1363 16.9905 21.6381C16.9789 22.7059 16.5716 23.1059 15.4908 23.1146C15.2857 23.1132 15.0689 23.1117 14.8507 23.1117ZM14.8231 22.3626C16.2632 22.3626 16.2632 22.3626 16.2632 20.8977V20.6795C16.2632 19.7078 16.2297 19.6729 15.2347 19.6743C13.1749 19.6743 13.4891 19.5289 13.4761 21.3923C13.4659 22.3364 13.4993 22.3582 14.4594 22.3626H14.8231Z" fill="white"/>
<path id="Vector_4" d="M3.75299 14.1977C5.78953 14.1977 5.919 14.3301 5.919 16.3681C5.919 16.6343 5.93354 16.9005 5.919 17.1638C5.86954 17.8373 5.43023 18.2883 4.75526 18.3145C4.08029 18.3406 3.44606 18.3377 2.80018 18.3145C2.11503 18.2926 1.67863 17.878 1.62918 17.1885C1.59281 16.659 1.60735 16.1266 1.61608 15.5957C1.63499 14.5905 2.02339 14.2094 3.02857 14.1948C3.27004 14.1948 3.51152 14.1977 3.75299 14.1977ZM3.77772 17.5784C5.1742 17.5784 5.17421 17.5784 5.17421 16.2968C5.17421 14.9294 5.17421 14.9294 3.71954 14.9294C2.34778 14.9294 2.34778 14.9294 2.34633 16.1775C2.34342 17.5784 2.34342 17.5784 3.78209 17.5784H3.77772Z" fill="white"/>
<path id="Vector_5" d="M11.454 21.0172C11.454 21.3081 11.4642 21.599 11.454 21.89C11.4235 22.5999 10.9929 23.0697 10.2816 23.1061C9.63036 23.141 8.97773 23.141 8.3265 23.1061C7.63408 23.0668 7.22387 22.6348 7.18896 21.9423C7.15986 21.3605 7.16277 20.7786 7.18896 20.204C7.21369 19.4243 7.62535 18.9981 8.39487 18.953C8.94765 18.921 9.50479 18.9341 10.0605 18.953C11.054 18.9748 11.4526 19.3894 11.4628 20.38C11.457 20.5822 11.454 20.8004 11.454 21.0172ZM9.27204 22.3671C10.8955 22.3846 10.7165 22.3846 10.7165 20.9124V20.6957C10.7165 19.7196 10.6816 19.6774 9.69826 19.6774C7.64863 19.6847 7.97884 19.4883 7.9192 21.4638C7.89883 22.1649 8.14613 22.4558 8.84 22.3671C8.98283 22.3571 9.12613 22.3557 9.26913 22.3627L9.27204 22.3671Z" fill="white"/>
<path id="Vector_6" d="M3.75605 9.41602C5.7664 9.41602 5.91914 9.57021 5.91914 11.598C5.91914 11.8642 5.93369 12.1304 5.91914 12.3952C5.86677 13.0818 5.44783 13.5051 4.75541 13.5313C4.10517 13.556 3.4462 13.5531 2.80179 13.5313C2.10063 13.5065 1.68169 13.108 1.63805 12.4112C1.60314 11.9064 1.61914 11.3929 1.62496 10.8911C1.6366 9.8015 2.02208 9.42183 3.11308 9.41602H3.75605ZM3.72987 12.785C5.15253 12.7719 5.18453 12.996 5.17726 11.566C5.17726 10.0255 5.25581 10.1521 3.76332 10.1623C2.44394 10.1724 2.32756 9.88733 2.34211 11.4947C2.35375 12.7894 2.34502 12.7894 3.72987 12.7894V12.785Z" fill="white"/>
<path id="Vector_7" d="M3.73566 23.1117C3.47091 23.1117 3.20471 23.119 2.9385 23.1117C2.11661 23.0856 1.66857 22.6841 1.6293 21.8855C1.59948 21.3064 1.59948 20.7262 1.6293 20.1471C1.66421 19.43 2.04533 19.0052 2.74503 18.9558C3.42019 18.9099 4.09768 18.9099 4.77284 18.9558C5.48708 19.0023 5.89439 19.4722 5.92057 20.1995C5.93658 20.6577 5.92057 21.1174 5.92057 21.5756C5.92057 22.6812 5.49144 23.1059 4.39026 23.1132C4.1706 23.1132 3.95386 23.1117 3.73566 23.1117ZM3.74293 22.367C5.17433 22.367 5.17433 22.367 5.17433 20.953C5.16634 20.8319 5.16634 20.7104 5.17433 20.5894C5.27325 19.8722 4.9314 19.654 4.25352 19.6685C2.12388 19.7166 2.36245 19.3776 2.34063 21.6396C2.34063 22.1589 2.56029 22.4062 3.08833 22.367C3.30653 22.3539 3.52473 22.3626 3.74293 22.3626V22.367Z" fill="white"/>
<path id="Vector_8" d="M9.30998 13.5446H8.80375C7.50328 13.5446 7.17744 13.2202 7.17453 11.9285C7.17453 11.447 7.15416 10.9611 7.19489 10.4825C7.25017 9.84103 7.63129 9.46427 8.27426 9.43372C8.94777 9.39881 9.62564 9.40463 10.3006 9.43372C10.9756 9.46281 11.4178 9.88467 11.4483 10.5727C11.4716 11.1022 11.4585 11.6346 11.4483 12.1729C11.4396 13.1446 11.057 13.5359 10.1028 13.5563C9.84094 13.549 9.57619 13.5446 9.30998 13.5446ZM9.28525 12.7896C10.8752 12.7896 10.7079 12.9351 10.7137 11.351C10.7137 11.1575 10.7137 10.964 10.7137 10.7691C10.7326 10.3443 10.5377 10.1509 10.1086 10.1611C9.57909 10.1727 9.04814 10.1756 8.51864 10.1611C8.08224 10.148 7.91204 10.3662 7.92368 10.7793C7.92368 10.996 7.92368 11.2157 7.92368 11.4295C7.92659 12.9497 7.81894 12.7809 9.28525 12.7896Z" fill="white"/>
<path id="Vector_9" d="M14.858 13.5443H14.2762C13.0732 13.5443 12.7298 13.1966 12.7269 11.9994C12.7269 11.5412 12.7168 11.083 12.7269 10.6247C12.7502 9.8814 13.1546 9.45373 13.8907 9.42609C14.5409 9.40282 15.1999 9.40427 15.8443 9.42609C16.544 9.45228 16.9586 9.86249 16.992 10.5636C17.0182 11.0931 17.0066 11.6256 16.992 12.1565C16.9789 13.15 16.5876 13.5268 15.5708 13.5414C15.3395 13.5472 15.0995 13.5443 14.858 13.5443ZM14.8478 12.7893C16.3418 12.7777 16.2647 12.9668 16.2632 11.4801C16.2632 10.1622 16.2632 10.1592 14.922 10.1636C13.4266 10.1636 13.4674 9.98032 13.4674 11.4408C13.479 12.9362 13.3597 12.7849 14.8478 12.7893V12.7893Z" fill="white"/>
<path id="Vector_10" d="M14.9498 14.2036C15.2625 14.2036 15.5782 14.1861 15.8895 14.2036C16.5455 14.2486 16.9616 14.6516 16.9921 15.3091C17.0212 15.9346 17.0212 16.5645 16.9921 17.19C16.9601 17.8766 16.5295 18.2897 15.8284 18.3145C15.2014 18.3363 14.573 18.3348 13.946 18.3145C13.178 18.2926 12.7503 17.8577 12.7299 17.0925C12.7168 16.5863 12.7299 16.0743 12.7299 15.5724C12.7387 14.6036 13.1227 14.2123 14.0784 14.1948C14.3694 14.1948 14.6603 14.1948 14.9512 14.1948L14.9498 14.2036ZM14.8174 17.5784C15.1083 17.5784 15.3993 17.5784 15.6902 17.5784C16.2619 17.5915 16.3332 17.1987 16.3332 16.7972C16.3332 16.227 16.6241 14.9614 15.7513 14.9614C15.1942 14.9614 14.5963 14.8887 14.0246 14.9614C13.8282 14.9847 13.5882 15.2626 13.5082 15.4764C13.4282 15.6902 13.4864 15.9986 13.4864 16.2648C13.4747 17.5784 13.4747 17.5784 14.8174 17.5784Z" fill="white"/>
<path id="Vector_11" d="M9.29521 18.3231C9.05374 18.3231 8.81372 18.3231 8.56788 18.3231C7.60197 18.3114 7.19467 17.9259 7.17285 16.9804C7.15976 16.4495 7.15248 15.9171 7.17285 15.3876C7.20631 14.6428 7.60925 14.2238 8.35113 14.2049C9.00137 14.1831 9.66033 14.1816 10.3048 14.2049C11.0015 14.2311 11.4118 14.6529 11.4408 15.3512C11.4627 15.8574 11.4496 16.3695 11.4408 16.8713C11.4336 17.9129 11.0379 18.3129 10.0065 18.326C9.77816 18.326 9.53669 18.3231 9.29521 18.3231ZM9.29521 17.5783C9.4638 17.5681 9.63285 17.5681 9.80144 17.5783C10.4822 17.6641 10.7513 17.4139 10.7266 16.6909C10.6611 14.6995 11.0015 14.9453 8.94318 14.9264C8.82245 14.9264 8.7017 14.9264 8.58097 14.9264C8.12856 14.8988 7.89873 15.0908 7.92346 15.5592C7.9351 15.7759 7.92346 15.9956 7.92346 16.2109C7.92491 17.5783 7.92491 17.5783 9.29521 17.5783Z" fill="white"/>
</g>
</svg>
