<svg width="27" height="21" viewBox="0 0 27 21" fill="none" xmlns="http://www.w3.org/2000/svg">
<g id="Group 5">
<path id="Vector" d="M0.00195312 4.90088H26.2963C26.2963 4.94732 26.3024 4.99074 26.3024 5.03416C26.3024 9.5993 26.3024 14.1644 26.3024 18.7296C26.3024 19.6625 25.8672 20.3512 25.0261 20.754C24.7898 20.8671 24.5102 20.8934 24.2487 20.9509C24.1747 20.961 24.0999 20.9631 24.0255 20.957C16.778 20.957 9.53073 20.957 2.28385 20.957C1.66087 20.957 1.11564 20.7732 0.668348 20.337C0.263496 19.9515 0.0260355 19.4226 0.00700188 18.8639C0.00700188 18.7902 0.00700188 18.7144 0.00700188 18.6397V4.90088H0.00195312ZM5.10695 10.7379C5.10695 11.3173 5.27886 11.8837 5.60092 12.3654C5.92297 12.8471 6.3807 13.2224 6.91615 13.4438C7.4516 13.6652 8.04071 13.7228 8.6089 13.6092C9.17708 13.4957 9.69881 13.2161 10.108 12.8059C10.5172 12.3957 10.7956 11.8733 10.9077 11.3048C11.0199 10.7363 10.9609 10.1474 10.7382 9.61245C10.5155 9.07754 10.1391 8.62072 9.65667 8.29983C9.17421 7.97894 8.6074 7.8084 8.02798 7.8098C7.25394 7.81589 6.51343 8.12657 5.96674 8.67458C5.42005 9.22259 5.11117 9.96384 5.10695 10.7379V10.7379ZM8.03505 18.0481H11.7568C11.9355 18.0481 12.1142 18.0531 12.2919 18.0481C12.8139 18.0329 13.1612 17.5735 13.0047 17.107C12.8522 16.6527 12.5892 16.2433 12.2394 15.9156C11.5801 15.2906 10.7824 15.0725 9.89591 15.1129C9.863 15.1161 9.8307 15.1239 9.79999 15.1361C8.74919 15.5694 7.57512 15.5982 6.50436 15.2169C6.24641 15.1293 5.97285 15.0973 5.70165 15.123C4.42238 15.2239 3.5601 15.8883 3.08858 17.0666C3.03769 17.2107 3.02928 17.3663 3.06434 17.5149C3.14209 17.8502 3.44904 18.0491 3.83878 18.0491L8.03505 18.0481ZM19.7283 12.2019C20.8107 12.2019 21.8934 12.2019 22.9764 12.2019C23.246 12.2019 23.3904 12.0555 23.3924 11.787C23.3924 11.579 23.3924 11.372 23.3924 11.164C23.3924 10.8772 23.244 10.7288 22.9542 10.7288H16.5053C16.2176 10.7288 16.0752 10.8712 16.0712 11.1559C16.0712 11.3467 16.0712 11.5376 16.0712 11.7284C16.0712 12.0788 16.1933 12.203 16.5407 12.203L19.7283 12.2019ZM19.7353 13.6579H16.4831C16.2166 13.6579 16.0792 13.7942 16.0722 14.0618C16.0722 14.2819 16.0722 14.501 16.0722 14.7211C16.0661 14.7901 16.0801 14.8593 16.1123 14.9205C16.1445 14.9817 16.1937 15.0324 16.2539 15.0664C16.344 15.1066 16.4421 15.1259 16.5407 15.123C18.6664 15.123 20.7915 15.123 22.9159 15.123H22.9906C23.0451 15.1268 23.0999 15.1188 23.151 15.0995C23.2022 15.0802 23.2485 15.05 23.2869 15.011C23.3253 14.9721 23.3548 14.9253 23.3733 14.8738C23.3919 14.8224 23.3991 14.7675 23.3945 14.713C23.3945 14.5111 23.3945 14.3092 23.3945 14.1072C23.3945 13.7912 23.2632 13.6589 22.9502 13.6589L19.7353 13.6579ZM19.7283 9.2799H22.9653C23.242 9.2799 23.3904 9.13249 23.3924 8.85987C23.3924 8.64784 23.3924 8.43614 23.3924 8.22478C23.3924 7.95418 23.246 7.80879 22.9754 7.80879C20.8127 7.80879 18.6499 7.80879 16.4872 7.80879C16.2216 7.80879 16.0833 7.94913 16.0742 8.21266C16.0742 8.4146 16.0742 8.61654 16.0742 8.82353C16.0742 9.14461 16.2085 9.27789 16.5286 9.27789L19.7283 9.2799Z" fill="white"/>
<path id="Vector_2" d="M0 2.90084C0.0171647 2.46465 -0.0363494 2.03654 0.0767359 1.6155C0.198847 1.16499 0.461705 0.765279 0.826968 0.474666C1.19223 0.184054 1.64079 0.0177457 2.10722 0C2.16477 0 2.22334 0 2.2819 0C9.52945 0 16.777 0 24.0246 0C24.6304 0 25.1635 0.171647 25.6047 0.58663C25.8249 0.787295 26.0006 1.03183 26.1206 1.30449C26.2406 1.57716 26.3022 1.87193 26.3014 2.16982C26.3014 2.41013 26.3014 2.65044 26.3014 2.90084H0Z" fill="white"/>
</g>
</svg>
