<svg width="23" height="26" viewBox="0 0 23 26" fill="none" xmlns="http://www.w3.org/2000/svg">
<g id="Group 8">
<path id="Vector" d="M0.478027 0.382673C0.643617 0.165589 0.901085 0.106017 1.13129 0H1.72197C2.49539 0.264539 3.15976 0.734045 3.86655 1.12681C6.9875 2.86247 10.0822 4.64457 13.191 6.40345C14.3936 7.08398 15.5921 7.7736 16.7926 8.46019C16.3403 8.9196 15.8899 9.38002 15.4356 9.83741C14.5215 10.7596 13.6064 11.6804 12.6902 12.5999H12.6508C12.6084 12.5504 12.5681 12.499 12.5216 12.4525L1.71792 1.64882C1.30294 1.22677 0.892 0.803713 0.478027 0.382673Z" fill="#01EE6D"/>
<path id="Vector_2" d="M0.478032 0.382812C0.892005 0.803853 1.30295 1.22691 1.71995 1.64493L12.5236 12.4486C12.5701 12.4951 12.6105 12.5496 12.6529 12.596C12.1056 13.2463 11.4412 13.7814 10.8566 14.3953C9.72578 15.5827 8.54646 16.7236 7.38633 17.8828C7.24182 18.0482 7.07576 18.1936 6.89259 18.3149C6.86584 18.274 6.8365 18.2349 6.80475 18.1978L0.332637 11.7277C0.29377 11.6798 0.245291 11.6406 0.190335 11.6126C0.135378 11.5846 0.0751678 11.5684 0.0135774 11.5651C0.0135774 11.4642 0.00448751 11.3693 0.00448751 11.2713C0.00448751 8.05949 -0.00560939 4.84867 0.00448751 1.63685C0.00852627 1.17744 0.130699 0.730146 0.478032 0.382812Z" fill="#00CCFE"/>
<path id="Vector_3" d="M6.89562 18.318C7.07879 18.1967 7.24485 18.0513 7.38936 17.8859C8.54949 16.7267 9.72881 15.5858 10.8597 14.3984C11.4392 13.7865 12.1066 13.2494 12.6508 12.5991H12.6862C12.7468 12.6648 12.8053 12.7334 12.8689 12.8011L16.6048 16.544C16.6684 16.6066 16.7239 16.6783 16.7835 16.7459C14.9923 17.7664 13.2008 18.7868 11.4089 19.8073C10.4346 20.3616 9.45518 20.9079 8.48083 21.4632C7.02015 22.2938 5.55946 23.1272 4.09877 23.9632C3.55657 24.2721 3.0174 24.5852 2.47115 24.884C2.04002 25.1193 1.58768 25.2778 1.08384 25.1617C0.849812 25.1141 0.637369 24.9923 0.478027 24.8144C0.538609 24.7477 0.59616 24.6791 0.65977 24.6124C1.92188 23.3483 3.19106 22.0882 4.44611 20.82C5.26497 19.9931 6.12825 19.2025 6.89562 18.318Z" fill="#F92F49"/>
<path id="Vector_4" d="M6.89574 18.3177C6.1304 19.2022 5.26711 19.9928 4.44724 20.8238C3.1922 22.095 1.92302 23.348 0.660905 24.6162C0.597295 24.6788 0.539744 24.7475 0.479162 24.8181C0.109616 24.4395 0.0147024 23.9609 0.00965399 23.4621C0.000566784 22.413 0.00965399 21.365 0.00965399 20.3169V11.8598C0.00965399 11.7588 0.0167255 11.6629 0.0197546 11.5649C0.081345 11.5682 0.141562 11.5844 0.196518 11.6124C0.251475 11.6404 0.299947 11.6796 0.338814 11.7275L6.81092 18.2006C6.84164 18.2378 6.86997 18.277 6.89574 18.3177Z" fill="#01DDFE"/>
<path id="Vector_5" d="M16.7907 16.7416C16.7311 16.675 16.6756 16.6033 16.612 16.5397L12.8761 12.7967C12.8125 12.7331 12.7539 12.6645 12.6934 12.5948C13.6081 11.674 14.5233 10.7531 15.4387 9.8323C15.8931 9.37491 16.3474 8.91449 16.7957 8.45508C18.453 9.39746 20.1099 10.3398 21.7664 11.2822C22.001 11.4189 22.2038 11.6041 22.3611 11.8254C22.7317 12.3303 22.7267 12.8906 22.345 13.3915C22.188 13.6023 21.9902 13.7795 21.7634 13.9125C20.1062 14.8595 18.4486 15.8026 16.7907 16.7416Z" fill="#FEC600"/>
</g>
</svg>
