<svg viewBox="0 0 88 50" fill="none" xmlns="http://www.w3.org/2000/svg">
<path d="M24.3467 12.2462C24.3467 12.2462 31.68 3.20735 44.7333 8.74729C54.5095 12.4474 68.2964 17.2266 76.7155 9.04285C79.7292 6.79542 81.0105 5.97819 81.3113 5.45515C81.612 4.93211 81.9911 18.8355 75.7349 25.7106C72.3442 29.2983 69.1801 33.783 55.8418 35.2397C53.3101 35.2397 33.6105 36.3982 25.1708 15.0128L24.3467 12.2462Z" fill="#4CAF50"/>
<path d="M55.7655 18.5045C57.1367 19.0786 58.5673 19.5013 60.0317 19.7651C61.5361 20.0432 63.0698 20.1324 64.5966 20.0307C66.1629 19.9245 67.7043 19.5863 69.1697 19.0276C70.6932 18.4354 72.1192 17.6215 73.4009 16.6126C72.411 17.9915 71.2197 19.2165 69.866 20.2473C68.4522 21.3105 66.8866 22.1588 65.2208 22.7644C63.5166 23.3816 61.7417 23.7865 59.9369 23.9699C58.0937 24.1625 56.2347 24.1529 54.3936 23.9413L55.7655 18.5045Z" fill="#4CAF50"/>
<path d="M27.7829 18.1613C29.135 18.8282 30.5557 19.3487 32.0202 19.714C33.5016 20.0874 35.0237 20.2781 36.5522 20.282C38.0965 20.2833 39.6325 20.0589 41.1109 19.616C42.6109 19.155 44.035 18.4791 45.338 17.6096C44.1263 18.6445 42.768 19.4974 41.3066 20.1411C39.8158 20.7867 38.2375 21.2114 36.6222 21.4017C34.9914 21.591 33.3434 21.58 31.7153 21.369C30.071 21.159 28.4542 20.7741 26.8929 20.2208L27.7829 18.1613Z" fill="#3D3D3D"/>
<path d="M35.5325 27.1306C35.894 27.2751 36.2667 27.3906 36.6469 27.4758C37.0589 27.5719 37.4709 27.6556 37.8829 27.7312C38.7247 27.8811 39.5734 27.9962 40.429 28.0765C42.1473 28.2349 43.8756 28.2575 45.5975 28.144C46.4627 28.0929 47.3176 27.9968 48.1931 27.8865L50.8051 27.5719L56.0292 26.9446L50.8793 28.0152L48.3043 28.5505C47.4515 28.7324 46.5739 28.9081 45.6964 29.0368C43.9316 29.3034 42.1482 29.4312 40.3631 29.4189C39.4677 29.4189 38.575 29.3746 37.6851 29.2861C37.2361 29.2452 36.787 29.1962 36.3297 29.1267C35.8468 29.0589 35.3701 28.953 34.9042 28.81L35.5325 27.1306Z" fill="#3D3D3D"/>
<path d="M47.5751 34.5471C47.5751 34.5471 35.9321 33.8953 25.9845 19.5445C24.5157 17.863 18.6366 9.79063 15.8124 7.77203C14.1149 6.54616 13.4372 4.29872 4.27651 4.74616C1.11033 4.68691 0 4.76457 0 4.76457L0.395511 0H11.0209C11.0209 0 18.3296 0.29831 22.7009 8.51982C27.0722 16.7413 33.5014 29.4454 47.5751 34.5471Z" fill="#3D3D3D"/>
<path d="M47.5752 34.5471C47.5752 34.5471 35.9323 32.2507 25.9847 17.8998C24.9197 16.6739 20.1879 10.424 17.6603 7.07126C16.2239 5.14935 14.0991 3.84701 11.7235 3.43248C9.94777 3.1301 7.52524 2.94622 4.28284 3.10559C1.11666 3.04633 0.00634766 3.12397 0.00634766 3.12397L0.401859 0.00411987H11.0272C11.0272 0.00411987 18.336 0.30243 22.7072 8.52394C27.0785 16.7455 33.5015 29.4455 47.5752 34.5471Z" fill="#3D3D3D"/>
<path d="M26.8702 13.3783C27.2122 13.0065 27.583 12.6653 27.962 12.3262C28.1536 12.1586 28.3493 11.9972 28.5512 11.8419C28.753 11.6867 28.9632 11.5314 29.1692 11.3802C30.0085 10.7755 30.9112 10.2625 31.8616 9.84989C33.8256 8.97981 35.988 8.64482 38.1259 8.87941C39.1995 9.03234 40.2486 9.32284 41.2468 9.74365C41.7391 9.94796 42.2171 10.1523 42.6888 10.3852C42.9216 10.4996 43.1564 10.6161 43.3851 10.7386C43.6137 10.8612 43.8465 10.9859 44.0834 11.1207C45.9168 12.2158 47.4906 13.4948 49.0479 14.7983C49.8142 15.4562 50.5785 16.1447 51.3139 16.8128C52.0493 17.4809 52.7827 18.1306 53.5304 18.7742C53.904 19.097 54.2809 19.4158 54.6614 19.7304L55.8108 20.6825C56.5812 21.3138 57.3496 21.9451 58.1221 22.5581C59.662 23.7803 61.2903 24.8886 62.9939 25.8741C64.7178 26.8811 66.5141 27.7606 68.3684 28.5056C67.3616 28.3677 66.3671 28.1525 65.3938 27.862C64.4145 27.5816 63.4517 27.2474 62.5098 26.8609C60.6001 26.0878 58.7739 25.1254 57.0592 23.9883C56.2105 23.4244 55.3844 22.8421 54.5707 22.2475C54.1587 21.9492 53.7467 21.653 53.3533 21.3485C52.9598 21.0441 52.5437 20.7356 52.144 20.4169C51.3468 19.7856 50.5702 19.1297 49.8039 18.4637C49.0376 17.7976 48.3187 17.1438 47.5627 16.5023C46.8067 15.8607 46.0548 15.2294 45.2967 14.6226C44.5386 14.0158 43.7497 13.4376 42.9648 12.9289C42.5858 12.6857 42.1408 12.4344 41.7288 12.2035C41.3168 11.9727 40.8822 11.7479 40.4517 11.5457C39.6203 11.1348 38.7438 10.8208 37.8396 10.6099C35.9775 10.2566 34.0573 10.349 32.2385 10.8796C31.295 11.1402 30.3762 11.482 29.4926 11.9012C28.587 12.3365 27.7111 12.8299 26.8702 13.3783V13.3783Z" fill="#4CAF50"/>
<path d="M64.9489 49.3659C66.9467 49.3659 68.5662 47.7596 68.5662 45.7781C68.5662 43.7967 66.9467 42.1904 64.9489 42.1904C62.9511 42.1904 61.3315 43.7967 61.3315 45.7781C61.3315 47.7596 62.9511 49.3659 64.9489 49.3659Z" fill="#3D3D3D"/>
<path d="M43.6982 49.3659C45.696 49.3659 47.3156 47.7596 47.3156 45.7781C47.3156 43.7967 45.696 42.1904 43.6982 42.1904C41.7004 42.1904 40.0809 43.7967 40.0809 45.7781C40.0809 47.7596 41.7004 49.3659 43.6982 49.3659Z" fill="#3D3D3D"/>
<path d="M73.9922 45.8639H71.957C71.957 45.6596 71.8231 44.5482 69.1966 41.6204C68.6275 40.9727 67.9268 40.4515 67.1405 40.0909C66.3542 39.7304 65.5 39.5386 64.6338 39.5282H44.1226C43.2887 39.5324 42.4647 39.7077 41.7025 40.0432C40.9403 40.3786 40.2563 40.8669 39.6937 41.4774C36.8365 44.4971 36.6923 45.6596 36.6923 45.8639H34.6467C34.6467 45.3654 34.6467 43.8494 38.2002 40.0962C38.9524 39.284 39.866 38.635 40.8835 38.1902C41.901 37.7454 43.0003 37.5144 44.1123 37.5117H64.6255C65.7785 37.5215 66.9163 37.7731 67.9643 38.2499C69.0123 38.7267 69.9469 39.4178 70.7066 40.278C73.9922 43.9271 73.9922 45.3838 73.9922 45.8639Z" fill="#3D3D3D"/>
</svg>
