<svg width="17" height="16" viewBox="0 0 17 16" fill="none" xmlns="http://www.w3.org/2000/svg">
<g id="Vector">
<path id="Vector_2" d="M0.694275 0.578854C0.804046 0.0839365 1.27793 0.00483681 1.65424 0.181541C6.60256 2.50229 11.5545 4.81517 16.51 7.12019C16.7772 7.24465 16.9971 7.39994 17 7.72614C17.0028 8.05234 16.7869 8.21271 16.5186 8.33789C11.5554 10.6514 6.59299 12.9667 1.63127 15.2838C1.28618 15.4453 1.01677 15.4097 0.827002 15.1666C0.769964 15.094 0.737679 15.0008 0.694272 14.9173L0.694272 14.6916C0.766018 14.5679 0.823415 14.4355 0.907358 14.3219C2.4255 12.2692 3.94568 10.2178 5.46789 8.16772C5.57551 8.02258 5.68313 7.87744 5.78824 7.73231C5.74985 7.67824 5.72008 7.63434 5.68851 7.59189C4.11345 5.46804 2.53886 3.34372 0.964757 1.21891C0.861802 1.07958 0.785392 0.921378 0.694275 0.771887L0.694275 0.578854Z" fill="white"/>
</g>
</svg>
