<svg width="45" height="78" viewBox="0 0 45 78" fill="none" xmlns="http://www.w3.org/2000/svg">
<g id="Group 4">
<path id="Vector" d="M44.9664 46.1888V46.9761C44.8718 47.1178 44.7035 47.2386 44.6877 47.4013C44.582 48.3448 44.2274 49.2434 43.6602 50.0055C43.0929 50.7676 42.3332 51.3659 41.4585 51.7393C38.303 53.1906 35.0554 54.466 31.842 55.8018C31.3804 55.9621 30.9108 56.0987 30.4352 56.2112C30.898 56.7099 31.203 57.0641 31.5344 57.3948C34.8424 60.7068 38.1549 64.0143 41.4717 67.3175C43.1362 68.9682 43.7437 70.9129 43.1047 73.1646C42.4657 75.4163 40.9668 76.6943 38.6843 77.1169C38.4844 77.1897 38.2972 77.2933 38.1294 77.4239H37.3405C35.0554 76.9358 33.4251 75.4924 31.8578 73.8653C29.1546 71.0598 26.354 68.3541 23.5877 65.6038C23.2563 65.2758 22.8987 64.9713 22.4885 64.5961C22.0546 65.0002 21.6996 65.3151 21.3656 65.6458C18.1049 68.886 14.8477 72.1288 11.594 75.3743C9.99518 76.9673 8.0703 77.4738 5.9298 76.8938C1.66982 75.7391 0.312929 70.6111 3.43954 67.4094C6.73971 64.0266 10.124 60.7225 13.4689 57.3817C13.7976 57.051 14.1053 56.6967 14.5628 56.206C13.958 56.0328 13.553 55.9147 13.1481 55.8018C9.51624 54.8284 6.05067 53.3184 2.86629 51.3221C2.22882 50.9361 1.67629 50.4253 1.24197 49.8205C0.807661 49.2156 0.500574 48.5293 0.339231 47.8028C0.250003 47.5223 0.136492 47.2501 0 46.9893V46.2019C0.130935 45.885 0.243329 45.5608 0.336599 45.2309C0.492745 44.4785 0.80812 43.7681 1.26162 43.1471C1.71512 42.5261 2.29628 42.009 2.96621 41.6303C5.10935 40.3916 7.20779 40.6199 9.27729 41.8744C14.6943 45.1706 20.5846 46.1626 26.7905 45.2073C30.1512 44.6824 33.2226 43.3703 36.1678 41.6749C39.7624 39.6148 43.7936 41.4834 44.664 45.5065C44.7393 45.7444 44.8407 45.9732 44.9664 46.1888Z" />
<path id="Vector_2" d="M21.5628 0H23.6665C24.636 0.199451 25.6054 0.400648 26.5749 0.603599C36.5069 2.70308 43.7463 11.8201 42.1501 22.9106C40.4934 34.4158 29.7462 40.9872 19.8299 39.6094C10.1713 38.2684 1.34108 29.6368 2.77159 17.3024C3.75506 8.84145 10.316 2.19921 18.7728 0.556362C19.6958 0.375282 20.6346 0.186329 21.5628 0ZM30.94 20.3519C31.0274 18.1699 30.2626 16.0392 28.8068 14.4089C27.351 12.7786 25.3179 11.776 23.1359 11.6123C20.9539 11.4486 18.7935 12.1367 17.1098 13.5316C15.4262 14.9264 14.3509 16.919 14.1105 19.0896C13.6398 24.3803 17.529 28.0491 21.8179 28.3981C26.6459 28.7892 30.6587 25.2017 30.94 20.3519Z" />
</g>
</svg>
