<svg width="17" height="16" viewBox="0 0 17 16" fill="none" xmlns="http://www.w3.org/2000/svg">
<g id="Vector">
<path id="Vector_2" d="M16.3058 14.8992C16.196 15.3941 15.7221 15.4732 15.3458 15.2965C10.3975 12.9757 5.4456 10.6629 0.490106 8.35784C0.222853 8.23338 0.00295131 8.07809 8.07757e-05 7.75189C-0.00278785 7.42569 0.213166 7.26532 0.481496 7.14014C5.44464 4.82665 10.4071 2.51135 15.3688 0.194232C15.7139 0.0327672 15.9833 0.068326 16.1731 0.311431C16.2301 0.384 16.2624 0.47725 16.3058 0.560704L16.3058 0.786392C16.234 0.910122 16.1766 1.04256 16.0927 1.15613C14.5746 3.20885 13.0544 5.26025 11.5322 7.31031C11.4245 7.45545 11.3169 7.60059 11.2118 7.74572C11.2502 7.79979 11.28 7.84369 11.3115 7.88614C12.8866 10.01 14.4612 12.1343 16.0353 14.2591C16.1383 14.3984 16.2147 14.5566 16.3058 14.7061L16.3058 14.8992Z" fill="white"/>
</g>
</svg>
