<svg width="25" height="24" viewBox="0 0 25 24" fill="none" xmlns="http://www.w3.org/2000/svg">
<g id="Group 7">
<path id="Vector" d="M3.18949 0.855469L8.79932 6.46329C8.5883 6.66523 8.36112 6.86716 8.14606 7.08929C7.38273 7.86272 7.28277 8.88856 7.8906 9.78113C9.8105 12.6081 12.2493 15.0451 15.0776 16.9631C15.958 17.5628 16.9889 17.4598 17.7522 16.7106C17.9703 16.4956 18.1793 16.2704 18.3762 16.0675C20.2532 17.9435 22.1121 19.8033 23.9841 21.6753C23.2808 22.4389 22.4122 23.0316 21.4447 23.4079C19.8736 24.0056 18.2813 23.9491 16.686 23.5291C14.8302 23.0404 13.1521 22.164 11.583 21.0856C7.89262 18.5523 4.8686 15.394 2.67152 11.4774C1.8779 10.0638 1.29026 8.56344 1.07419 6.94087C0.760172 4.58122 1.42253 2.55478 3.14304 0.889798C3.15739 0.876901 3.17295 0.865406 3.18949 0.855469V0.855469Z" fill="white"/>
<path id="Vector_2" d="M9.42026 5.61422L4.02649 0.219446C4.64038 -0.174333 5.67229 -0.0259087 6.30132 0.584954C7.02426 1.29174 7.73104 2.00862 8.44489 2.72146C8.66198 2.93854 8.88411 3.15058 9.0911 3.37574C9.65652 3.99266 9.78778 4.93369 9.42026 5.61422Z" fill="white"/>
<path id="Vector_3" d="M19.2526 15.4264C19.8513 15.0619 20.857 15.17 21.4476 15.7384C22.423 16.6808 23.3819 17.6393 24.3242 18.614C24.8957 19.2077 25.0027 20.18 24.6413 20.8212L19.2526 15.4264Z" fill="white"/>
</g>
</svg>
