<svg width="88" height="50" viewBox="0 0 88 50" fill="none" xmlns="http://www.w3.org/2000/svg">
<path id="Vector" d="M0 3.62544C0.229568 3.24458 0.553273 2.92859 0.940272 2.70758C1.32727 2.48657 1.76467 2.3679 2.21079 2.36288C2.66702 2.33687 3.12526 2.29485 3.5835 2.29284C7.30701 2.26883 11.0319 2.24949 14.7581 2.23482C16.6734 2.23482 17.9316 3.06719 18.7777 4.83597C21.0032 9.45669 23.3031 14.0407 25.6774 18.5881C26.6662 20.4869 27.9384 22.2317 29.6528 23.5903C30.0514 23.9128 30.4957 24.1751 30.9712 24.3686C32.0324 24.7808 32.8363 24.4327 33.383 23.4502C34.209 21.9816 34.2733 20.3428 34.4603 18.7341C34.8984 15.0025 34.8441 11.2888 34.0824 7.58919C33.6262 5.37621 32.2736 4.18769 30.1311 3.74949C29.0358 3.52739 28.9634 3.24727 29.7292 2.4149C30.593 1.4436 31.77 0.802545 33.0574 0.602096C38.0136 -0.134231 42.9819 -0.240278 47.9441 0.536066C50.3961 0.918236 51.3206 1.76061 51.5397 4.64189C51.7085 6.84286 51.5236 9.08586 51.4974 11.3108C51.4653 14.2762 51.3929 17.2435 51.4251 20.2088C51.4435 21.0918 51.6148 21.965 51.9316 22.7899C52.5868 24.5327 53.9414 24.7908 55.3483 23.6183C57.6656 21.7055 59.2131 19.2023 60.8049 16.7312C63.1938 12.9729 65.222 8.99893 66.8625 4.86198C67.7508 2.66101 68.1467 2.4269 70.4942 2.4089C75.1168 2.37488 79.7213 2.29885 84.3338 2.27284C85.0469 2.26299 85.7577 2.356 86.4441 2.54896C87.7605 2.93513 88.1725 3.67746 87.9374 5.01605C87.5736 7.08297 86.6129 8.91978 85.4372 10.5965C82.4405 14.8744 79.3233 19.0683 76.2644 23.3022C75.581 24.2506 74.8756 25.193 74.2887 26.1994C73.2838 27.9222 73.4426 29.4589 74.8374 30.8895C76.8472 32.9564 78.9636 34.9293 81.0055 36.9682C83.2324 39.1932 85.3628 41.5082 86.9807 44.2294C87.3152 44.7899 87.5753 45.3912 87.7545 46.0182C88.3735 48.2312 87.2983 49.4197 85.1417 49.6418C83.2083 49.8319 81.2507 49.7959 79.3133 49.8419C76.793 49.906 74.2727 49.996 71.7503 50C69.662 50.0009 67.6456 49.24 66.0827 47.861C64.3382 46.3524 62.7966 44.6116 61.1707 42.9689C59.9869 41.7684 58.8212 40.5558 57.6193 39.3793C57.2817 39.0699 56.8997 38.8123 56.4858 38.615C55.4226 38.0707 54.6408 38.1908 53.7444 38.9951C52.1828 40.3957 51.809 42.3006 51.5738 44.2435C51.4693 45.0898 51.4794 45.9522 51.4231 46.8046C51.3085 48.5474 50.4745 49.5378 48.74 49.6799C41.1771 50.2921 34.0101 49.3957 27.5123 44.9238C23.1912 41.9504 19.6881 38.3028 16.5749 34.167C9.93451 25.3271 4.80948 15.6408 0.349709 5.5783C0.237159 5.32419 0.116569 5.07408 0 4.82197V3.62544Z" fill="#4CAF50"/>
</svg>
